<?xml version="1.0" standalone="no"?>
<!DOCTYPE svg PUBLIC "-//W3C//DTD SVG 20010904//EN"
 "http://www.w3.org/TR/2001/REC-SVG-20010904/DTD/svg10.dtd">
<svg version="1.0" xmlns="http://www.w3.org/2000/svg"
 width="260.000000pt" height="260.000000pt" viewBox="0 0 260.000000 260.000000"
 preserveAspectRatio="xMidYMid meet">
<metadata>
Created by potrace 1.11, written by Peter Selinger 2001-2013
</metadata>
<g transform="translate(0.000000,260.000000) scale(0.100000,-0.100000)"
fill="#000000" stroke="none">
<path d="M1126 2523 c-2 -2 -14 -6 -27 -8 -84 -16 -176 -39 -185 -46 -7 -6
-16 -9 -20 -8 -11 3 -32 -6 -124 -49 -41 -20 -78 -35 -82 -34 -5 1 -8 -2 -8
-8 0 -5 -6 -10 -14 -10 -8 0 -16 -3 -18 -7 -1 -5 -30 -26 -63 -48 -125 -83
-287 -265 -361 -405 -16 -30 -32 -57 -37 -58 -4 -2 -5 -8 -1 -13 3 -5 0 -9 -7
-9 -7 0 -10 -3 -7 -6 4 -3 -4 -29 -17 -57 -20 -46 -36 -102 -37 -124 0 -5 -4
-13 -10 -20 -5 -7 -7 -17 -4 -22 4 -5 2 -12 -3 -16 -5 -3 -9 -13 -9 -23 0 -9
-3 -35 -8 -57 -10 -51 -11 -336 0 -394 4 -23 11 -53 16 -66 5 -13 6 -25 3 -28
-3 -3 -1 -12 3 -19 5 -7 9 -17 9 -23 1 -5 4 -17 7 -25 4 -8 16 -44 28 -80 13
-36 39 -94 58 -130 20 -36 43 -79 53 -97 9 -18 19 -29 23 -26 3 4 6 0 6 -7 0
-36 245 -290 280 -290 5 0 10 -3 10 -7 0 -16 247 -154 280 -157 8 -1 38 -9 65
-19 28 -9 59 -18 70 -20 11 -2 27 -7 35 -10 8 -3 22 -5 30 -5 8 0 29 -4 45 -8
39 -10 326 -10 385 -1 59 10 71 12 95 20 11 3 31 8 45 11 70 12 310 120 310
139 0 6 3 8 6 4 16 -16 243 178 317 271 58 74 137 205 137 229 0 7 5 13 10 13
6 0 10 4 10 9 0 5 8 26 17 47 9 22 17 41 18 44 1 3 5 12 8 20 11 26 48 183 55
230 9 61 8 314 -1 370 -11 72 -48 214 -58 225 -5 5 -9 16 -9 24 0 42 -127 266
-182 323 -10 10 -15 18 -12 18 10 0 -160 166 -196 190 -19 13 -37 27 -40 30
-8 9 -99 64 -161 97 -63 34 -222 93 -250 93 -11 0 -19 3 -19 8 0 4 -10 7 -22
8 -13 0 -39 4 -58 8 -35 8 -377 16 -384 9z m349 -87 c70 -10 137 -26 196 -47
35 -12 69 -22 74 -23 31 -6 201 -104 265 -153 79 -60 119 -99 179 -173 20 -25
39 -47 42 -50 10 -8 101 -163 103 -174 1 -6 10 -25 19 -42 9 -17 13 -34 10
-38 -4 -3 -2 -6 4 -6 6 0 13 -12 16 -27 3 -16 13 -53 22 -83 20 -70 28 -115
29 -162 1 -21 4 -38 7 -38 7 0 3 -226 -5 -290 -5 -42 -9 -62 -21 -110 -3 -11
-7 -29 -10 -40 -17 -78 -71 -201 -133 -305 -43 -70 -54 -85 -133 -171 -47 -51
-147 -136 -204 -172 -32 -20 -190 -98 -216 -107 -31 -10 -38 -12 -44 -15 -14
-7 -99 -24 -107 -22 -5 1 -8 -2 -8 -6 0 -4 -10 -9 -22 -9 -13 -1 -43 -5 -68
-9 -84 -14 -382 -6 -409 10 -4 3 -21 7 -37 10 -124 22 -333 122 -445 213 -58
47 -169 159 -169 170 0 7 -4 13 -9 13 -8 0 -91 113 -91 124 0 4 -11 24 -25 46
-14 22 -22 40 -19 40 4 0 2 6 -3 13 -29 37 -88 234 -100 328 -12 108 -6 329
12 399 4 14 7 32 9 40 15 97 101 295 168 385 33 45 126 154 147 173 14 13 39
35 55 49 41 36 152 113 164 113 5 0 15 7 22 15 7 8 21 15 30 15 10 0 20 4 22
9 4 11 180 77 228 85 49 9 53 11 68 19 7 5 12 3 12 -5 0 -9 3 -10 8 -2 4 6 22
11 40 10 19 -1 36 2 38 5 4 7 240 3 289 -5z"/>
<path d="M855 1934 c-43 -29 -74 -63 -75 -81 0 -7 -4 -13 -10 -13 -6 0 -9 -3
-8 -7 1 -5 -7 -35 -16 -67 -51 -167 5 -388 114 -446 35 -19 98 -21 130 -5 33
17 102 94 94 106 -3 5 -1 9 4 9 8 0 19 30 39 110 5 20 5 161 0 180 -2 8 -7 29
-12 45 -22 84 -99 183 -143 186 -9 1 -31 3 -48 5 -22 2 -44 -4 -69 -22z"/>
<path d="M1620 1949 c0 -5 -4 -8 -10 -6 -16 4 -89 -73 -102 -109 -6 -19 -15
-34 -19 -34 -4 0 -6 -8 -4 -17 1 -10 0 -22 -4 -28 -9 -17 -12 -37 -15 -114 -6
-122 28 -226 94 -290 138 -134 310 22 308 278 -2 141 -49 256 -126 307 -28 18
-122 28 -122 13z"/>
<path d="M2206 1540 c-2 -8 -7 -37 -11 -64 -8 -58 -53 -186 -66 -186 -5 0 -9
-7 -9 -16 0 -26 -67 -112 -145 -189 -83 -81 -99 -95 -146 -121 -19 -10 -36
-22 -39 -25 -8 -10 -129 -65 -180 -82 -97 -32 -196 -47 -310 -47 -113 0 -168
8 -280 39 -104 29 -297 139 -358 204 -11 12 -27 27 -34 33 -97 85 -206 274
-223 387 -11 74 -9 72 -51 72 -37 0 -39 -1 -37 -30 1 -26 9 -75 18 -110 1 -5
5 -18 9 -27 4 -9 9 -22 10 -30 6 -34 68 -148 112 -205 55 -74 174 -193 192
-193 7 0 10 -4 7 -10 -3 -5 0 -10 8 -10 8 0 22 -9 32 -20 10 -11 23 -20 30
-20 6 0 22 -10 35 -22 14 -13 25 -21 25 -19 0 2 18 -5 40 -16 74 -37 197 -79
255 -88 90 -14 129 -18 215 -19 55 -1 104 0 110 3 5 3 21 6 35 7 59 5 159 30
213 53 26 11 47 18 47 14 0 -3 8 1 18 10 9 8 19 16 22 17 31 6 50 14 50 21 0
5 5 9 10 9 13 0 106 59 147 92 45 37 143 140 143 150 0 5 5 6 10 3 6 -3 10 1
10 9 0 9 5 16 10 16 6 0 10 7 10 15 0 8 3 15 8 15 4 0 12 8 17 19 6 10 24 45
41 77 52 99 82 212 75 280 -2 19 -70 23 -75 4z"/>
</g>
</svg>
